<svg xmlns="http://www.w3.org/2000/svg" viewBox="0 0 48 48"><path fill="#ff1d25" d="M21.214,14.728l-3.012,3.353l-2.642-2.642c-0.01-0.01-0.025-0.013-0.035-0.023 c-0.127-0.12-0.272-0.218-0.434-0.288c-0.025-0.011-0.049-0.018-0.075-0.027c-0.051-0.019-0.099-0.042-0.152-0.056l-4-1 c-0.011-0.003-0.023-0.003-0.034-0.005c-0.048-0.011-0.096-0.016-0.145-0.022c-0.047-0.006-0.094-0.013-0.141-0.014 c-0.046-0.001-0.091,0.003-0.137,0.005c-0.049,0.003-0.097,0.005-0.145,0.013c-0.045,0.007-0.09,0.019-0.134,0.031 c-0.047,0.012-0.094,0.025-0.14,0.041c-0.042,0.015-0.083,0.034-0.124,0.054c-0.048,0.022-0.094,0.046-0.139,0.074 c-0.019,0.011-0.039,0.018-0.057,0.031l-6,4c-0.253,0.168-0.448,0.409-0.561,0.691l-2,5c-0.308,0.769,2.551,1.701,2.785,1.114 L5.72,20.49l1.94-1.293L6.404,22.89c-0.414,1.316-0.5,2.732-0.24,4.141l1.265,5.802l-2.294,5.047 c-0.343,0.754-0.01,1.644,0.744,1.986C6.081,39.957,6.291,40,6.499,40c0.57,0,1.115-0.327,1.366-0.88l2.5-5.5 c0.134-0.294,0.169-0.624,0.101-0.94L10,28l3,4.916V38.5c0,0.829,0.672,1.5,1.5,1.5s1.5-0.671,1.5-1.5v-6 c0-0.272-0.074-0.539-0.214-0.772L13,26l2.097-6.782l2.342,2.342C17.723,21.844,18.104,22,18.5,22c0.061,0,0.122-0.004,0.184-0.011 c0.458-0.057,0.865-0.321,1.103-0.717l4-5C24.213,15.562,21.641,14.018,21.214,14.728z"/><path fill="#ffb74d" d="M23.271,14.214c-0.709-0.426-1.631-0.196-2.058,0.514l-0.635,0.706l2.423,1.817l0.784-0.98 C24.213,15.562,23.982,14.64,23.271,14.214z"/><circle cx="14" cy="11" r="3" fill="#ffb74d"/><circle cx="28" cy="28" r="3" fill="#ffb74d"/><path fill="#455a64" d="M23.999,19c-0.209,0-0.419-0.065-0.599-0.2l-4-3l1.199-1.6l4,3c0.442,0.331,0.532,0.958,0.2,1.4 C24.604,18.862,24.304,19,23.999,19z"/><path fill="#607d8b" d="M29.5,42h-3c-0.828,0-1.5-0.671-1.5-1.5v-6.051l-3.687-0.461c-0.541-0.067-1.004-0.424-1.206-0.931 l-2-5c-0.308-0.769,0.066-1.642,0.836-1.95c0.77-0.307,1.642,0.066,1.949,0.835l1.672,4.179l5.37,0.671 C29.682,32.011,31,33.504,31,35.266V40.5C31,41.329,30.328,42,29.5,42z"/><circle cx="43" cy="28" r="3" fill="#ffb74d"/><path fill="#607d8b" d="M44.5,42h-3c-0.828,0-1.5-0.671-1.5-1.5v-6.051l-3.687-0.461c-0.541-0.067-1.004-0.424-1.206-0.931 l-2-5c-0.308-0.769,0.066-1.642,0.836-1.95c0.769-0.307,1.642,0.066,1.949,0.835l1.672,4.179l5.37,0.671 C44.682,32.011,46,33.504,46,35.266V40.5C46,41.329,45.328,42,44.5,42z"/><path fill="#9c27b0" d="M35,11c-1.105,0-2,0.895-2,2s0.895,2,2,2c1.105,0,2-0.895,2-2S36.105,11,35,11z"/><rect width="1" height="7.139" x="36" y="5.861" fill="#9c27b0"/><path fill="#9c27b0" d="M29,13c-1.105,0-2,0.895-2,2s0.895,2,2,2c1.105,0,2-0.895,2-2S30.105,13,29,13z"/><rect width="1" height="7.139" x="30" y="7.969" fill="#9c27b0"/><path fill="#9c27b0" d="M40,17c-1.105,0-2,0.895-2,2s0.895,2,2,2s2-0.895,2-2S41.105,17,40,17z"/><rect width="1" height="7.139" x="41" y="11.861" fill="#9c27b0"/><polygon fill="#9c27b0" points="30,11 37,8 37,5 30,8"/><polygon fill="#9c27b0" points="41,14 46,15 46,12 41,11"/><rect width="48" height="2" y="40" fill="#455a64"/><circle cx="19.5" cy="14.5" r="1.5" fill="#607d8b"/><path fill="#ffb74d" d="M3.893,25.057L4.2,24.288l-2.783-1.12l-0.31,0.775c-0.308,0.769,0.066,1.642,0.836,1.95 C2.126,25.966,2.314,26,2.5,26C3.095,26,3.658,25.644,3.893,25.057z"/></svg>