<svg xmlns="http://www.w3.org/2000/svg" viewBox="0 0 48 48"><path fill="#fcbf95" d="M44.139,30.283c0.135,2.744,0.095,5.496-0.118,8.234c-0.086,1.104-0.237,2.29-0.988,3.103 c-0.136,0.147-0.292,0.28-0.476,0.36c-0.321,0.14-0.687,0.106-1.036,0.072c-10.264-1.005-20.593,0.195-30.904,0.426 c-1.872,0.042-4.026-0.086-5.169-1.569c-0.977-1.268-0.62-3.386-0.572-4.986c0.114-3.774-0.306-8.137-0.257-11.913 c0.032-2.485-0.274-4.978-0.555-7.447c-0.277-2.437-0.912-4.953-0.17-7.29c0.202-0.636,0.517-1.258,1.03-1.684 c0.938-0.778,2.537-0.697,3.753-0.616c2.772-0.116,4.197-0.191,6.969-0.307c0.517-0.022,1.065-0.036,1.515,0.22 C18.12,7.433,18.145,8.88,19,9.575c0.461,0.375,1.083,0.465,1.673,0.535c5.337,0.631,12.688,0.948,18.043,0.495 c0.82-0.069,1.658-0.15,2.456,0.051c0.524,0.132,1.012,0.382,1.472,0.666c0.275,0.17,0.551,0.362,0.716,0.641 c0.211,0.355,0.21,0.794,0.199,1.207c-0.073,2.784-0.263,5.343-0.1,8.124C43.602,23.723,44.113,29.749,44.139,30.283z"/><path fill="#010101" d="M44.639,30.259c-0.009-0.193-0.082-1.104-0.178-2.303c-0.174-2.17-0.412-5.143-0.503-6.691 c-0.119-2.039-0.047-3.943,0.029-5.96c0.026-0.697,0.053-1.401,0.072-2.122c0.014-0.516,0.003-1.017-0.271-1.477 c-0.219-0.365-0.553-0.604-0.883-0.81c-0.596-0.368-1.108-0.599-1.612-0.725c-0.85-0.217-1.706-0.143-2.62-0.064 c-5.548,0.467-13.009,0.089-17.942-0.493c-0.572-0.068-1.074-0.147-1.417-0.427c-0.306-0.249-0.493-0.668-0.692-1.111 c-0.262-0.586-0.56-1.25-1.212-1.622c-0.587-0.336-1.277-0.308-1.784-0.287c-1.386,0.059-2.435,0.106-3.484,0.154 s-2.098,0.096-3.43,0.154c-1.187-0.078-2.985-0.198-4.105,0.73C4.085,7.639,3.686,8.283,3.419,9.123 c-0.625,1.97-0.332,4.024-0.048,6.011c0.071,0.498,0.142,0.994,0.198,1.487l0.055,0.486c0.258,2.266,0.526,4.608,0.496,6.897 c-0.023,1.773,0.058,3.703,0.136,5.569c0.089,2.133,0.182,4.338,0.121,6.336c-0.008,0.279-0.026,0.575-0.045,0.88 c-0.092,1.516-0.196,3.234,0.721,4.425c1.154,1.499,3.15,1.771,5.053,1.771c0.175,0,0.35-0.002,0.523-0.006 c3.152-0.071,6.354-0.235,9.452-0.394c7.027-0.358,14.296-0.73,21.392-0.035c0.374,0.034,0.84,0.082,1.285-0.112 c0.227-0.099,0.437-0.256,0.643-0.479c0.861-0.933,1.029-2.246,1.119-3.404C44.734,35.801,44.774,33.01,44.639,30.259z M4.373,9.426c0.208-0.654,0.501-1.142,0.873-1.45c0.539-0.447,1.404-0.552,2.242-0.552c0.427,0,0.847,0.027,1.213,0.051 c1.387-0.059,2.438-0.106,3.488-0.154c1.048-0.048,2.096-0.096,3.48-0.153c0.513-0.021,0.933-0.023,1.246,0.155 c0.369,0.21,0.566,0.651,0.795,1.163c0.227,0.505,0.483,1.078,0.974,1.478c0.55,0.448,1.227,0.561,1.93,0.644 c4.982,0.588,12.524,0.97,18.231,0.49c0.778-0.067,1.516-0.129,2.204,0.045c0.401,0.101,0.824,0.293,1.33,0.605 c0.257,0.159,0.448,0.301,0.551,0.471c0.136,0.229,0.139,0.562,0.129,0.939c-0.019,0.716-0.045,1.416-0.071,2.11 c-0.026,0.69-0.049,1.367-0.067,2.042c-0.715-0.565-1.755-0.683-2.652-0.709c-3.139-0.088-6.314-0.107-9.439-0.055 c-1.854,0.031-3.708,0.087-5.563,0.143c-4.122,0.124-8.383,0.253-12.565,0.088l-0.265-0.01c-1.637-0.066-3.33-0.134-4.921,0.438 c-0.955,0.343-1.984,0.968-2.676,1.821c-0.07-0.682-0.145-1.362-0.222-2.033l-0.056-0.485c-0.057-0.502-0.129-1.008-0.201-1.515 C4.093,13.117,3.816,11.177,4.373,9.426z M43.523,38.478c-0.081,1.037-0.214,2.106-0.858,2.804c-0.11,0.12-0.211,0.198-0.308,0.241 c-0.205,0.09-0.501,0.063-0.787,0.032c-7.171-0.701-14.476-0.329-21.541,0.033c-3.09,0.157-6.285,0.321-9.423,0.392 c-1.799,0.043-3.773-0.092-4.762-1.374c-0.688-0.895-0.596-2.414-0.514-3.755c0.019-0.314,0.038-0.621,0.046-0.911 c0.061-2.033-0.032-4.257-0.122-6.407c-0.077-1.853-0.157-3.769-0.135-5.514c0.012-0.924-0.031-1.85-0.093-2.774 c0-0.012,0.006-0.023,0.006-0.035c-0.05-1.398,1.38-2.546,2.821-3.063c1.408-0.508,3.002-0.442,4.543-0.381l0.266,0.011 c4.216,0.164,8.496,0.035,12.635-0.089c1.85-0.056,3.7-0.111,5.549-0.142c3.111-0.053,6.272-0.033,9.394,0.055 c0.906,0.025,1.992,0.146,2.359,0.849c0.261,0.497,0.273,0.914,0.295,1.604c0.009,0.283,0.02,0.599,0.049,0.963 c0,0.006,0.004,0.01,0.005,0.016c0.005,0.098,0.005,0.192,0.011,0.291c0.092,1.56,0.33,4.538,0.504,6.713 c0.095,1.183,0.167,2.08,0.177,2.271C43.773,33.017,43.733,35.766,43.523,38.478z"/><path fill="#73a1b2" d="M24.391,31.308c0.4-0.679,0.809-1.368,1.375-1.901s1.324-0.896,2.078-0.792 c1.013,0.14,1.75,1.045,2.384,1.886c1.007,1.335,2.013,2.67,3.02,4.005c0.071,0.094,0.144,0.194,0.159,0.313 c0.047,0.373-0.442,0.523-0.8,0.526c-2.37,0.023-4.445,0.155-6.815,0.178"/><path fill="#4b7bb2" d="M19.994,35.455c-2.451-0.155-4.533-0.267-6.982-0.074c-0.104-0.57,0.115-1.156,0.432-1.635 c0.318-0.479,0.732-0.88,1.09-1.328c1.341-1.681,1.805-3.912,2.818-5.821c0.244-0.46,0.563-0.936,1.052-1.081 c0.679-0.202,1.349,0.309,1.861,0.81c1.423,1.395,2.665,2.986,3.681,4.717c0.375,0.64,0.724,1.304,1.212,1.858 c0.535,0.608,1.233,1.075,1.642,1.779c0.091,0.156,0.168,0.345,0.108,0.516c-0.095,0.272-0.445,0.314-0.726,0.31 C23.995,35.474,22.178,35.593,19.994,35.455z"/><path fill="#010101" d="M33.647,34.206l-3.02-4.005c-0.727-0.964-1.535-1.917-2.714-2.08 c-0.835-0.117-1.742,0.221-2.489,0.923c-0.481,0.452-0.854,1.002-1.18,1.536c-1.015-1.689-2.231-3.241-3.628-4.611 c-0.316-0.31-1.276-1.249-2.354-0.933c-0.681,0.202-1.08,0.815-1.351,1.327c-0.4,0.754-0.716,1.555-1.023,2.33 c-0.494,1.251-0.961,2.433-1.743,3.413c-0.128,0.16-0.265,0.315-0.401,0.47c-0.245,0.277-0.497,0.565-0.715,0.894 c-0.312,0.47-0.653,1.199-0.508,2c0.046,0.254,0.277,0.433,0.532,0.409c2.367-0.187,4.358-0.087,6.911,0.075c0,0,0,0,0,0 c0.858,0.054,1.651,0.069,2.437,0.069c0.482,0,0.962-0.006,1.453-0.012c0.597-0.007,1.209-0.011,1.841-0.008 c0.033,0.007,0.063,0.02,0.097,0.02c0.001,0,0.003,0,0.005,0c1.189-0.012,2.305-0.05,3.42-0.089 c1.107-0.039,2.214-0.078,3.395-0.089c0.171-0.002,0.753-0.038,1.087-0.42c0.162-0.187,0.234-0.424,0.204-0.667 C33.872,34.504,33.736,34.324,33.647,34.206z M23.841,35.012c-1.269,0.016-2.466,0.03-3.815-0.056h0 c-2.401-0.151-4.314-0.25-6.517-0.111c0.061-0.337,0.231-0.641,0.352-0.822c0.181-0.271,0.4-0.521,0.633-0.786 c0.147-0.166,0.293-0.333,0.432-0.507c0.875-1.097,1.392-2.404,1.892-3.669c0.296-0.749,0.603-1.524,0.976-2.229 c0.18-0.339,0.428-0.74,0.753-0.837c0.344-0.107,0.792,0.123,1.368,0.688c1.394,1.365,2.604,2.917,3.6,4.613l0.186,0.32 c0.316,0.549,0.644,1.116,1.083,1.615c0.207,0.233,0.435,0.448,0.664,0.662c0.359,0.337,0.698,0.654,0.921,1.036 c0.014,0.024,0.025,0.045,0.033,0.063c-0.045,0.008-0.111,0.008-0.212,0.013C25.366,34.994,24.597,35.003,23.841,35.012z M32.602,34.846c-1.189,0.012-2.304,0.05-3.419,0.089c-0.586,0.021-1.175,0.041-1.772,0.057c-0.014-0.18-0.063-0.366-0.178-0.564 c-0.297-0.509-0.707-0.893-1.103-1.263c-0.205-0.192-0.412-0.384-0.597-0.594c-0.267-0.303-0.489-0.654-0.706-1.018 c0.375-0.637,0.763-1.293,1.282-1.781c0.525-0.494,1.132-0.737,1.667-0.661c0.8,0.11,1.453,0.896,2.053,1.691l3.02,4.006 c0,0,0,0,0,0C32.786,34.828,32.7,34.845,32.602,34.846z"/><path fill="#febf10" d="M34.134,23.462c-0.149-0.272-0.547-0.621-0.83-0.746c-0.813-0.357-1.819-0.457-2.548,0.05 c-0.155,0.108-0.294,0.241-0.389,0.404c-0.059,0.1-0.1,0.21-0.133,0.322c-0.255,0.869,0.042,1.874,0.727,2.465 c0.686,0.591,1.723,0.737,2.545,0.357c0.205-0.095,0.4-0.222,0.535-0.403c0.106-0.142,0.171-0.311,0.218-0.482 C34.418,24.859,34.418,23.98,34.134,23.462z"/><path fill="#010101" d="M32.525,27.026c-0.684,0-1.366-0.237-1.891-0.69c-0.838-0.723-1.192-1.922-0.881-2.983 c0.05-0.17,0.107-0.309,0.182-0.435c0.124-0.213,0.304-0.402,0.535-0.563c0.789-0.55,1.923-0.585,3.035-0.097 c0.391,0.172,0.87,0.604,1.067,0.963l0,0c0.358,0.652,0.356,1.672,0.168,2.342c-0.074,0.267-0.168,0.472-0.298,0.646 c-0.172,0.229-0.409,0.412-0.727,0.56C33.341,26.941,32.933,27.026,32.525,27.026z M31.956,22.919 c-0.328,0-0.649,0.073-0.915,0.258c-0.11,0.077-0.192,0.159-0.243,0.246c-0.032,0.055-0.059,0.121-0.084,0.21 c-0.2,0.683,0.036,1.481,0.574,1.945c0.539,0.465,1.365,0.58,2.009,0.282c0.161-0.074,0.277-0.158,0.345-0.249 c0.053-0.07,0.096-0.172,0.136-0.316c0.129-0.462,0.127-1.212-0.082-1.593l0,0c-0.092-0.168-0.402-0.444-0.592-0.527 C32.768,23.027,32.356,22.919,31.956,22.919z"/></svg>